<?xml version="1.0" encoding="utf-8"?>
<!-- Generator: Adobe Illustrator 18.1.1, SVG Export Plug-In . SVG Version: 6.00 Build 0)  -->
<svg version="1.1" id="Layer_1" xmlns="http://www.w3.org/2000/svg" xmlns:xlink="http://www.w3.org/1999/xlink" x="0px" y="0px"
	 viewBox="0 0 1920 1920" enable-background="new 0 0 1920 1920" xml:space="preserve">
<path fill="#FFFFFF" d="M1373.2,795.5c4.4-24.5,6.8-49.7,6.8-75.5c0-232-188-420-420-420S540,488,540,720c0,25.8,2.3,51,6.8,75.5
	C369.8,844.9,240,1007.3,240,1200c0,232,188,420,420,420c117.5,0,223.8-48.3,300-126.1c76.2,77.8,182.5,126.1,300,126.1
	c232,0,420-188,420-420C1680,1007.3,1550.2,844.9,1373.2,795.5z M600,720c0-198.5,161.5-360,360-360s360,161.5,360,360
	c0,21.7-1.9,42.9-5.6,63.5c-17.8-2.3-36-3.5-54.4-3.5c-117.5,0-223.8,48.3-300,126.1C883.8,828.3,777.5,780,660,780
	c-18.4,0-36.6,1.2-54.4,3.5C601.9,762.9,600,741.7,600,720z M1020,1200c0,73.4-22.1,141.8-60,198.8c-37.9-57-60-125.3-60-198.8
	c0-21.7,1.9-42.9,5.6-63.5c17.8,2.3,36,3.5,54.4,3.5s36.6-1.2,54.4-3.5C1018.1,1157.1,1020,1178.3,1020,1200z M960,1080
	c-13.1,0-26-0.7-38.7-2.1c9.8-27.2,22.9-52.9,38.7-76.7c15.8,23.7,28.8,49.5,38.7,76.7C986,1079.3,973.1,1080,960,1080z
	 M861.7,1066.4c-111.6-31.7-201.2-116-240.4-224.3c12.7-1.4,25.6-2.1,38.7-2.1c102.6,0,195.3,43.1,260.9,112.2
	C895.7,986.6,875.6,1025.1,861.7,1066.4z M999.1,952.2C1064.7,883.1,1157.4,840,1260,840c13.1,0,26,0.7,38.7,2.1
	c-39.1,108.3-128.8,192.6-240.4,224.3C1044.4,1025.1,1024.3,986.6,999.1,952.2z M660,1560c-198.5,0-360-161.5-360-360
	c0-164.4,110.8-303.5,261.7-346.4c44,131.2,151,233.5,285.1,270.9c-4.4,24.5-6.8,49.7-6.8,75.5c0,92.7,30,178.3,80.9,247.8
	C855.3,1516.9,762.6,1560,660,1560z M1260,1560c-102.6,0-195.3-43.1-260.9-112.2c50.9-69.5,80.9-155.1,80.9-247.8
	c0-25.8-2.3-51-6.8-75.5c134.1-37.4,241.1-139.7,285.1-270.9c150.9,42.9,261.7,181.9,261.7,346.4C1620,1398.5,1458.5,1560,1260,1560
	z"/>
</svg>
