<?xml version="1.0" encoding="utf-8"?>
<!-- Generator: Adobe Illustrator 18.1.1, SVG Export Plug-In . SVG Version: 6.00 Build 0)  -->
<svg version="1.1" id="Layer_1" xmlns="http://www.w3.org/2000/svg" xmlns:xlink="http://www.w3.org/1999/xlink" x="0px" y="0px"
	 viewBox="0 0 1920 1920" enable-background="new 0 0 1920 1920" xml:space="preserve">
<path fill="#0000FF" d="M1444.4,767.2c5.2-28.7,8-58.3,8-88.5c0-272-220.4-492.3-492.3-492.3S467.7,406.7,467.7,678.7
	c0,30.2,2.7,59.8,8,88.5C268.2,825.1,116,1015.4,116,1241.3c0,272,220.4,492.3,492.3,492.3c137.7,0,262.3-56.6,351.7-147.8
	c89.3,91.2,213.9,147.8,351.7,147.8c272,0,492.3-220.4,492.3-492.3C1804,1015.4,1651.8,825.1,1444.4,767.2z M538,678.7
	c0-232.7,189.3-422,422-422s422,189.3,422,422c0,25.4-2.2,50.3-6.6,74.4c-20.9-2.7-42.2-4.1-63.8-4.1
	c-137.7,0-262.3,56.6-351.7,147.8C870.7,805.6,746.1,749,608.3,749c-21.6,0-42.9,1.4-63.8,4.1C540.2,729,538,704.1,538,678.7z
	 M1030.3,1241.3c0,86-25.9,166.2-70.3,233c-44.4-66.8-70.3-146.9-70.3-233c0-25.4,2.2-50.3,6.6-74.4c20.9,2.7,42.2,4.1,63.8,4.1
	s42.9-1.4,63.8-4.1C1028.1,1191,1030.3,1215.9,1030.3,1241.3z M960,1100.7c-15.4,0-30.5-0.8-45.4-2.5c11.5-31.9,26.8-62,45.4-89.9
	c18.5,27.8,33.8,58,45.4,89.9C990.5,1099.8,975.4,1100.7,960,1100.7z M844.8,1084.7C714,1047.6,608.9,948.7,563,821.8
	c14.9-1.6,30-2.5,45.4-2.5c120.3,0,228.9,50.5,305.8,131.5C884.6,991.2,861.1,1036.3,844.8,1084.7z M1005.8,950.9
	c76.9-81,185.6-131.5,305.8-131.5c15.4,0,30.5,0.8,45.4,2.5c-45.8,127-151,225.8-281.8,262.9
	C1058.9,1036.3,1035.4,991.2,1005.8,950.9z M608.3,1663.3c-232.7,0-422-189.3-422-422c0-192.7,129.9-355.8,306.8-406.1
	c51.6,153.8,177,273.7,334.2,317.6c-5.2,28.7-8,58.3-8,88.5c0,108.7,35.2,209,94.8,290.5C837.3,1612.8,728.6,1663.3,608.3,1663.3z
	 M1311.7,1663.3c-120.3,0-228.9-50.5-305.8-131.5c59.7-81.5,94.8-181.8,94.8-290.5c0-30.2-2.7-59.8-8-88.5
	c157.2-43.8,282.6-163.8,334.2-317.6c176.9,50.3,306.8,213.2,306.8,406.1C1733.7,1474,1544.4,1663.3,1311.7,1663.3z"/>
</svg>
