<?xml version="1.0" standalone="no"?>
<!DOCTYPE svg PUBLIC "-//W3C//DTD SVG 20010904//EN"
 "http://www.w3.org/TR/2001/REC-SVG-20010904/DTD/svg10.dtd">
<svg version="1.0" xmlns="http://www.w3.org/2000/svg"
 width="700.000000pt" height="700.000000pt" viewBox="0 0 700.000000 700.000000"
 preserveAspectRatio="xMidYMid meet">
<metadata>
Created by potrace 1.11, written by Peter Selinger 2001-2013
</metadata>
<g transform="translate(0.000000,700.000000) scale(0.100000,-0.100000)"
fill="#000000" stroke="none">
<path d="M3350 6313 c-223 -29 -210 -26 -307 -53 -170 -47 -318 -110 -478
-203 -38 -23 -72 -44 -75 -47 -3 -3 -39 -30 -80 -61 -42 -31 -118 -99 -171
-151 -284 -282 -464 -640 -515 -1028 -3 -19 -7 -46 -10 -60 -5 -30 -6 -324 0
-360 2 -14 7 -52 11 -86 l7 -61 -83 -28 c-101 -33 -278 -116 -374 -175 -320
-197 -589 -518 -725 -867 -37 -95 -93 -283 -85 -283 3 0 0 -11 -5 -24 -9 -25
-16 -72 -29 -205 -12 -117 -4 -327 14 -416 3 -11 7 -38 10 -59 3 -22 16 -81
30 -131 83 -314 235 -576 470 -810 269 -270 594 -436 980 -502 102 -18 396
-25 476 -12 30 5 74 11 99 15 75 10 209 45 313 81 244 87 460 222 653 410 l22
22 54 -50 c267 -253 599 -411 988 -473 82 -12 416 -15 467 -3 11 3 43 8 70 12
189 26 479 136 658 250 231 147 438 356 575 580 312 510 351 1157 101 1690
-214 456 -617 814 -1078 956 -71 22 -70 18 -52 134 10 69 14 332 5 390 -3 17
-8 55 -11 85 -8 66 -64 282 -94 364 -86 232 -228 452 -411 635 -270 272 -598
441 -985 507 -81 14 -372 26 -435 17z m275 -257 c481 -35 940 -318 1187 -731
67 -112 144 -285 163 -365 2 -8 10 -40 18 -70 8 -30 18 -76 21 -101 4 -25 9
-59 12 -75 10 -52 11 -289 3 -355 -15 -114 -9 -107 -86 -97 -68 8 -336 3 -383
-7 -14 -3 -45 -8 -70 -11 -71 -8 -264 -62 -364 -101 -210 -82 -398 -200 -559
-351 l-68 -63 -57 54 c-167 160 -381 292 -614 378 -99 36 -254 76 -333 84 -33
4 -63 9 -68 12 -13 8 -319 11 -383 4 l-62 -7 -9 91 c-10 91 -9 305 1 360 2 17
8 50 11 75 51 359 282 740 587 970 188 142 455 260 643 285 11 2 45 7 75 13
30 5 86 10 125 11 38 1 71 4 73 6 2 2 18 2 35 0 18 -3 64 -7 102 -9z m-1180
-2060 c49 -10 128 -27 155 -32 53 -10 208 -68 289 -108 77 -38 218 -121 231
-136 3 -3 25 -21 50 -40 25 -19 71 -60 104 -91 l59 -56 -42 -61 c-53 -79 -142
-248 -177 -337 -15 -38 -31 -74 -35 -79 -10 -12 -138 33 -254 90 -76 36 -238
134 -255 153 -3 3 -33 30 -68 60 -153 130 -285 296 -370 466 -48 95 -72 153
-72 170 0 11 37 13 178 11 97 -2 191 -6 207 -10z m2495 -2 c0 -8 -17 -52 -37
-97 -174 -384 -498 -682 -896 -822 -45 -16 -81 -24 -86 -19 -4 5 -18 36 -31
69 -37 96 -108 233 -167 325 l-55 84 70 66 c221 207 538 359 827 396 28 3 51
7 53 9 2 2 75 3 163 3 132 0 159 -2 159 -14z m535 -149 c446 -223 753 -651
829 -1155 14 -91 16 -394 2 -430 -3 -8 -8 -33 -11 -54 -24 -166 -102 -369
-208 -541 -220 -358 -618 -633 -1012 -699 -170 -29 -290 -35 -438 -22 -315 27
-657 180 -892 399 l-80 74 26 34 c147 196 274 525 305 794 4 27 8 53 11 57 5
9 4 292 -1 328 -2 14 -7 52 -11 85 -4 33 -8 64 -9 69 0 5 17 16 39 24 229 84
321 128 460 219 316 209 579 539 700 879 l18 50 81 -28 c44 -16 131 -53 191
-83z m-3655 50 c70 -205 236 -462 410 -635 210 -208 425 -340 730 -447 30 -11
54 -23 54 -29 -1 -5 -5 -36 -9 -69 -4 -33 -9 -71 -11 -85 -6 -38 -5 -247 1
-315 17 -197 79 -429 163 -605 31 -65 138 -247 160 -273 14 -16 12 -21 -24
-58 -21 -22 -68 -64 -104 -92 -36 -28 -67 -54 -70 -57 -22 -25 -226 -138 -325
-181 -51 -22 -220 -71 -285 -84 -37 -7 -98 -16 -135 -20 -56 -7 -285 -7 -315
0 -14 2 -45 7 -70 10 -268 32 -588 184 -803 381 -177 160 -348 413 -407 599
-7 22 -16 45 -20 50 -8 11 -33 110 -56 223 -10 46 -17 141 -19 238 -3 148 1
189 31 362 9 57 74 243 112 322 148 314 407 576 716 725 102 50 223 95 245 92
8 -1 22 -24 31 -52z m1775 -740 c30 -60 56 -121 57 -135 l3 -25 -158 -2 -159
-1 7 26 c7 33 85 194 123 257 l27 44 23 -27 c12 -15 47 -76 77 -137z m-125
-420 c80 -1 170 0 200 5 36 5 57 4 62 -3 11 -19 22 -177 20 -302 -2 -102 -19
-229 -46 -346 -27 -118 -117 -328 -178 -417 l-30 -43 -30 48 c-103 160 -191
420 -215 630 -12 111 -6 323 11 408 3 11 5 23 5 26 1 3 13 4 29 2 15 -3 92 -6
172 -8z"/>
</g>
</svg>
