<svg id="logo" data-name="Layer 1" xmlns="http://www.w3.org/2000/svg" viewBox="0 0 1080 500"><defs><style>.cls-1{fill:blue;}</style></defs><title>Logo Blue</title><path class="cls-1" d="M938.08,298.23V90.48H918L792.77,249.54c.43.55.82,1.15,1.25,1.71a74.64,74.64,0,0,1,7.6,13.25L919.7,116.13v182.1H809.54c.23,2.93.33,5.92.33,9,0,2.73-.1,5.46-.33,8.12h109.3v76.95h19.24V315.33h49.59v-17.1Z"/><path class="cls-1" d="M795.65,315.33h.05c0-.48.06-1,.09-1.45s.07-1,.1-1.48c.1-1.71.17-3.43.17-5.19v0h0v-.05c0-2.16-.07-4.26-.18-6.33l-.09-1.51c0-.35,0-.71-.06-1.06h0a89.31,89.31,0,0,0-4.05-21.2h0a.66.66,0,0,0,0-.15c-.41-1.25-.85-2.49-1.32-3.69-.24-.62-.51-1.22-.76-1.82-.4-.93-.79-1.87-1.22-2.77-.67-1.38-1.37-2.73-2.12-4-.43-.73-.89-1.42-1.34-2.13-.33-.53-.63-1.07-1-1.58l0,0c-.35-.52-.67-1.07-1-1.58q-13.27-18.35-31.63-28t-47.45-19.44q-20.09-7.29-30.78-12a54,54,0,0,1-17.73-12.2,25.57,25.57,0,0,1-7.07-18.16q0-13.26,7.93-20.09t20.72-6.84q14.94,0,23.74,8.75c5.82,5.85,9.47,13.75,10.88,23.74H790.5Q786.66,133.2,757,109.29T676.8,85.35q-31.23,0-55.35,10.46-22.25,9.61-35.61,27.06c-.16.21,2.83,4.68,3.11,5.19,1,1.84,2,3.72,2.92,5.62a111.66,111.66,0,0,1,8.55,25.14c2,9.24,3.59,18.76,2.44,28.23-1,8.11-4,15.87-7.7,23.14a51.8,51.8,0,0,1-6,9.51c-.69.82-3.25,2.77-3.3,3.8s1.53,2,2.08,2.67c1.41,1.65,2.86,3.26,4.38,4.82a85.68,85.68,0,0,0,9.46,8.39,80.69,80.69,0,0,0,12.4,7.75q18.15,9.18,46.79,19,19.68,6.86,30.78,11.77a59.23,59.23,0,0,1,18.61,12.63c5,5.13,7.46,11.51,7.46,19.24,0,8.51-2.69,15.35-8.12,20.48S696.89,338,687.48,338q-16.23,0-26.7-9.83t-12.2-26.93H608c.13,1.94.17,3.94.17,6a97.08,97.08,0,0,1-14.21,51.17,1.4,1.4,0,0,0-.16.29,89.33,89.33,0,0,0,12.92,11.81q32.89,24.75,83.78,24.79,33.79,0,57.52-12t35.9-32.06A82.62,82.62,0,0,0,795.65,315.33Z"/><path class="cls-1" d="M581.07,259.32q-13.26-18.4-31.63-28T502,211.87q-20.12-7.26-30.78-12a53.35,53.35,0,0,1-17.75-12.2,25.39,25.39,0,0,1-7-18.15c0-8.85,2.63-15.52,7.89-20.09s12.2-6.84,20.75-6.84c10,0,17.89,2.92,23.71,8.78s9.47,13.74,10.92,23.71h79.08q-3.85-41.88-33.57-65.84T475.06,85.34q-31.21,0-55.37,10.49T381.87,126a73.51,73.51,0,0,0-8,14.79A138.44,138.44,0,0,1,386.64,161q18.19,35.07,18.18,79.94c0,.59,0,1.18,0,1.77a85.17,85.17,0,0,0,7.63,4.44q18.19,9.18,46.82,19Q478.88,273,490,277.93a57.89,57.89,0,0,1,18.58,12.59q7.5,7.69,7.5,19.24c0,8.55-2.73,15.39-8.12,20.52S495.15,338,485.75,338c-10.85,0-19.73-3.29-26.74-9.83s-11-15.52-12.16-26.93H395.12a150.7,150.7,0,0,1-8.48,19.66,142.71,142.71,0,0,1-9.27,15.46A86.79,86.79,0,0,0,405,370.46q32.91,24.81,83.79,24.79,33.74,0,57.48-12t35.91-32.07a83.35,83.35,0,0,0,12.2-44Q594.33,277.7,581.07,259.32Z"/><path class="cls-1" d="M306.5,281.85a70.63,70.63,0,0,1-26.29,32.06q-17.74,11.8-42.11,11.81-32.06,0-51.72-23t-19.67-61.79q0-38.81,19.67-62t51.72-23.2q24.38,0,42.11,11.81A70.41,70.41,0,0,1,306.5,200h77.37q-11.12-51-48.95-81T239.38,89.09q-44,0-77.37,19.19a131,131,0,0,0-51.51,53.78q-18.18,34.59-18.17,78.88t18.17,78.87A131,131,0,0,0,162,373.59q33.35,19.2,77.37,19.19,57.72,0,95.54-30.15t48.95-80.78Z"/><polygon class="cls-1" points="819.91 407.87 780.96 407.87 780.96 417.43 794.32 417.43 794.32 457.58 806.41 457.58 806.41 417.43 819.91 417.43 819.91 407.87"/><path class="cls-1" d="M855.39,410.36a26.39,26.39,0,0,0-25.45,0,24.15,24.15,0,0,0-9.07,9.07,27.5,27.5,0,0,0,0,26.27,24,24,0,0,0,9.07,9.1,26.26,26.26,0,0,0,25.38,0,24,24,0,0,0,9.07-9.1,27.64,27.64,0,0,0,0-26.27A23.93,23.93,0,0,0,855.39,410.36ZM852,443a13.28,13.28,0,0,1-18.74,0q-3.48-3.85-3.48-10.4t3.48-10.44a13.36,13.36,0,0,1,18.78,0q3.48,3.87,3.48,10.41T852,443Z"/><path class="cls-1" d="M907.47,410.36a26.39,26.39,0,0,0-25.45,0,24.08,24.08,0,0,0-9.07,9.07,27.5,27.5,0,0,0,0,26.27,24,24,0,0,0,9.07,9.1,26.26,26.26,0,0,0,25.38,0,24,24,0,0,0,9.07-9.1,27.61,27.61,0,0,0,0-26.27A23.84,23.84,0,0,0,907.47,410.36ZM904.06,443a13.28,13.28,0,0,1-18.74,0q-3.48-3.85-3.48-10.4t3.48-10.44a13.35,13.35,0,0,1,18.77,0q3.49,3.87,3.49,10.41T904.06,443Z"/><polygon class="cls-1" points="934.44 407.87 922.42 407.87 922.42 457.58 950.47 457.58 950.47 448.37 934.44 448.37 934.44 407.87"/><path class="cls-1" d="M980.28,431.11a54.74,54.74,0,0,0-7.8-3.2q-3.3-1.2-5.06-2a8.81,8.81,0,0,1-2.92-2,4.19,4.19,0,0,1-1.16-3,4.12,4.12,0,0,1,1.3-3.31,5,5,0,0,1,3.41-1.12A5.27,5.27,0,0,1,972,418a6.64,6.64,0,0,1,1.79,3.9h13A15,15,0,0,0,981.23,411q-4.89-3.93-13.18-3.94a22.7,22.7,0,0,0-9.11,1.73,14.39,14.39,0,0,0-6.22,4.95,14.64,14.64,0,0,0-.1,15.44,14.23,14.23,0,0,0,5.13,4.5,62,62,0,0,0,7.7,3.13q3.22,1.13,5.06,1.93a9.7,9.7,0,0,1,3.06,2.07A4.38,4.38,0,0,1,974.8,444a4.43,4.43,0,0,1-1.34,3.37,5.07,5.07,0,0,1-3.65,1.27,6.18,6.18,0,0,1-4.4-1.62,6.75,6.75,0,0,1-2-4.43h-12.8A14.78,14.78,0,0,0,956.52,454q5.41,4.08,13.78,4.08a20.86,20.86,0,0,0,9.46-2,14.09,14.09,0,0,0,5.9-5.27,13.67,13.67,0,0,0,2-7.24,13.19,13.19,0,0,0-2.18-7.88A15,15,0,0,0,980.28,431.11Z"/><path class="cls-1" d="M781,445.34a6.23,6.23,0,1,0,6.22,6.23A6.22,6.22,0,0,0,781,445.34Z"/></svg>